<?xml version="1.0" standalone="no"?>
<!DOCTYPE svg PUBLIC "-//W3C//DTD SVG 20010904//EN"
 "http://www.w3.org/TR/2001/REC-SVG-20010904/DTD/svg10.dtd">
<svg version="1.0" xmlns="http://www.w3.org/2000/svg"
 width="512.000000pt" height="512.000000pt" viewBox="0 0 512.000000 512.000000"
 preserveAspectRatio="xMidYMid meet">

<g transform="translate(0.000000,512.000000) scale(0.100000,-0.100000)"
fill="#000000" stroke="none">
<path d="M441 5104 c-52 -37 -51 -14 -51 -994 0 -980 -1 -957 51 -994 30 -21
78 -21 108 0 52 37 51 18 51 944 l0 860 1375 0 1375 0 0 -768 0 -768 -62 -41
c-35 -23 -92 -71 -128 -107 l-65 -65 -5 235 -5 236 -33 29 -32 29 -233 0
c-258 0 -266 -2 -293 -66 -20 -48 -20 -500 0 -548 27 -64 36 -66 278 -66 l218
0 -23 -47 c-14 -27 -32 -72 -41 -100 l-18 -53 -177 0 c-259 0 -251 11 -251
-340 0 -258 5 -292 51 -324 13 -9 33 -16 45 -16 22 0 22 0 -8 -77 -16 -42 -35
-114 -41 -160 l-11 -83 -688 0 c-511 0 -694 -3 -713 -12 -55 -25 -55 -22 -55
-598 l0 -530 -230 0 -230 0 0 860 c0 926 1 907 -51 944 -54 38 -130 6 -149
-62 -6 -24 -10 -336 -10 -889 l0 -853 -155 0 c-171 0 -202 -8 -223 -55 -17
-36 -17 -534 0 -570 27 -59 -146 -55 2478 -55 2624 0 2451 -4 2478 55 42 92
-24 282 -137 396 -125 125 -298 175 -466 135 l-50 -12 -51 46 c-66 59 -174
116 -266 139 l-73 19 -3 217 -2 217 32 -22 c18 -12 69 -39 113 -60 469 -223
1020 106 1052 630 15 251 -109 510 -312 650 l-44 31 5 77 c18 238 -85 506
-265 694 -129 136 -283 224 -467 270 -112 27 -304 29 -407 4 -38 -9 -70 -16
-73 -16 -2 0 -4 357 -4 794 l0 795 -24 28 -24 28 -1519 3 c-1394 2 -1520 1
-1542 -14z m2449 -1744 l0 -140 -100 0 -100 0 0 140 0 140 100 0 100 0 0 -140z
m1080 -72 c250 -47 471 -241 554 -486 39 -114 50 -217 35 -339 -14 -124 -11
-132 86 -189 160 -93 274 -288 275 -470 1 -289 -252 -543 -541 -544 -160 0
-332 80 -425 199 l-34 44 0 131 0 131 186 185 c190 189 214 219 214 266 0 35
-59 94 -95 94 -42 0 -63 -15 -187 -138 l-118 -117 0 248 0 249 -29 29 c-41 41
-101 41 -142 0 l-29 -29 0 -138 0 -137 -94 91 c-52 50 -106 94 -120 98 -66 16
-126 -30 -126 -97 0 -42 4 -46 170 -214 l170 -171 0 -240 0 -241 -34 -44 c-67
-86 -204 -168 -315 -189 -241 -46 -486 77 -591 295 -60 124 -72 221 -45 350
31 148 129 283 260 360 97 56 100 64 86 188 -28 237 48 458 214 623 181 179
419 250 675 202z m-1097 -755 c6 -86 6 -88 -20 -108 -14 -11 -44 -35 -65 -52
-25 -21 -51 -33 -69 -33 l-29 0 0 140 0 140 89 0 88 0 6 -87z m-1013 -1383 l0
-470 -300 0 -300 0 0 470 0 470 300 0 300 0 0 -470z m685 458 c29 -85 51 -134
80 -182 l35 -58 0 -344 0 -344 -300 0 -300 0 0 470 0 470 240 0 c184 0 242 -3
245 -12z m1173 -719 l-3 -111 -70 -19 c-38 -10 -76 -18 -83 -18 -10 -1 -12 40
-10 186 l3 187 80 45 80 46 3 -102 c1 -56 1 -152 0 -214z m-776 243 c98 -48
204 -72 315 -72 l93 0 0 -190 0 -190 -245 0 -245 0 0 246 c0 135 3 244 8 242
4 -1 37 -18 74 -36z m1082 -595 c58 -27 96 -55 147 -107 38 -38 81 -73 95 -76
26 -7 29 -6 114 25 95 35 196 21 279 -39 37 -27 101 -110 101 -132 0 -4 -317
-8 -705 -8 -811 0 -730 -13 -668 111 62 124 172 217 303 255 28 9 84 12 151
11 98 -3 112 -6 183 -40z m-786 -64 c-1 -5 -18 -38 -36 -75 -18 -37 -40 -96
-49 -133 l-16 -65 -1468 0 -1469 0 0 140 0 140 1521 0 c836 0 1519 -3 1517 -7z"/>
<path d="M931 4564 c-46 -32 -51 -66 -51 -324 0 -258 5 -292 51 -324 20 -14
57 -16 256 -16 l233 0 32 29 33 29 0 282 0 282 -33 29 -32 29 -233 0 c-199 0
-236 -2 -256 -16z m359 -324 l0 -140 -100 0 -100 0 0 140 0 140 100 0 100 0 0
-140z"/>
<path d="M1731 4564 c-46 -32 -51 -66 -51 -324 0 -258 5 -292 51 -324 20 -14
57 -16 256 -16 l233 0 32 29 33 29 0 282 0 282 -33 29 -32 29 -233 0 c-199 0
-236 -2 -256 -16z m359 -324 l0 -140 -100 0 -100 0 0 140 0 140 100 0 100 0 0
-140z"/>
<path d="M2531 4564 c-46 -32 -51 -66 -51 -324 0 -258 5 -292 51 -324 20 -14
57 -16 256 -16 l233 0 32 29 33 29 0 282 0 282 -33 29 -32 29 -233 0 c-199 0
-236 -2 -256 -16z m359 -324 l0 -140 -100 0 -100 0 0 140 0 140 100 0 100 0 0
-140z"/>
<path d="M931 3684 c-46 -32 -51 -66 -51 -324 0 -258 5 -292 51 -324 20 -14
57 -16 256 -16 l233 0 32 29 33 29 0 282 0 282 -33 29 -32 29 -233 0 c-199 0
-236 -2 -256 -16z m359 -324 l0 -140 -100 0 -100 0 0 140 0 140 100 0 100 0 0
-140z"/>
<path d="M1731 3684 c-46 -32 -51 -66 -51 -324 0 -258 5 -292 51 -324 20 -14
57 -16 256 -16 l233 0 32 29 33 29 0 282 0 282 -33 29 -32 29 -233 0 c-199 0
-236 -2 -256 -16z m359 -324 l0 -140 -100 0 -100 0 0 140 0 140 100 0 100 0 0
-140z"/>
<path d="M441 2884 c-13 -9 -29 -32 -37 -50 -12 -29 -12 -39 -1 -66 18 -42 37
-58 81 -65 45 -7 82 16 102 63 12 29 12 39 0 68 -17 41 -51 66 -91 66 -17 0
-41 -7 -54 -16z"/>
<path d="M931 2804 c-46 -32 -51 -66 -51 -324 0 -258 5 -292 51 -324 20 -14
57 -16 256 -16 l233 0 32 29 33 29 0 282 0 282 -33 29 -32 29 -233 0 c-199 0
-236 -2 -256 -16z m359 -324 l0 -140 -100 0 -100 0 0 140 0 140 100 0 100 0 0
-140z"/>
<path d="M1731 2804 c-46 -32 -51 -66 -51 -324 0 -258 5 -292 51 -324 20 -14
57 -16 256 -16 l233 0 32 29 33 29 0 282 0 282 -33 29 -32 29 -233 0 c-199 0
-236 -2 -256 -16z m359 -324 l0 -140 -100 0 -100 0 0 140 0 140 100 0 100 0 0
-140z"/>
</g>
</svg>
